# xmcd
# 
# Track frame offsets:
#     150
#     16803
#     37395
#     56305
#     82207
#     101972
#     122104
#     139846
#     151511
#     176793
#     194158
#     220812
# 
# Disc length: 3206
# 
# Revision: 4
# Processed by: cddbd v1.5.2PL0 Copyright (c) Steve Scherf et al.
# Submitted via: fre:ac v1.0.17
# 
DISCID=b00c840c
DTITLE=Serge Tonnar and Legotrip - Klasseklon
DYEAR=2011
DGENRE=Blues
TTITLE0=Am Zigarettendamp
TTITLE1=Ech hu Loscht dech ze flecken
TTITLE2=Crémant an der Chamber
TTITLE3=Blumme vun der Tankstell
TTITLE4=Den Accident ass geraumt
TTITLE5=Mir wëlle bleiwe wat mer sinn
TTITLE6=Laksembörg Sitti
TTITLE7=Bopebistro
TTITLE8=Disnäland
TTITLE9=Tock Tock Tock
TTITLE10=Klasseklon
TTITLE11=Belschplaasch
EXTD=YEAR: 2011
EXTT0=
EXTT1=
EXTT2=
EXTT3=
EXTT4=
EXTT5=
EXTT6=
EXTT7=
EXTT8=
EXTT9=
EXTT10=
EXTT11=
PLAYORDER=
